<svg version="1.1" id="Layer_1" xmlns="http://www.w3.org/2000/svg" xmlns:xlink="http://www.w3.org/1999/xlink" x="0px" y="0px"
	 width="100%" viewBox="0 0 784 784" enable-background="new 0 0 784 784" xml:space="preserve">
<path fill="#000000" opacity="1.000000" stroke="none" 
	d="
M453.468658,785.000000 
	C443.277588,774.528992 437.485626,762.220642 435.921082,748.006531 
	C435.616364,745.237854 434.114929,744.558960 431.696014,744.122314 
	C410.753296,740.341736 389.834534,736.428955 368.901733,732.593140 
	C331.926147,725.817688 294.926819,719.168579 257.991760,712.179504 
	C253.486206,711.326904 251.579727,712.530579 249.550827,716.345886 
	C235.685867,742.418579 205.564285,754.289612 178.392288,743.751038 
	C154.447571,734.464233 141.885529,716.348816 140.402267,690.634460 
	C139.187836,669.580505 152.758301,647.018372 173.144394,637.526001 
	C177.652496,635.426880 178.365677,633.135315 177.724167,628.851746 
	C174.173950,605.146118 170.809753,581.412659 167.366959,557.690857 
	C164.163666,535.619507 160.847427,513.563843 157.799332,491.471191 
	C157.102417,486.419952 155.587982,483.861450 149.791748,482.888824 
	C122.833740,478.365265 102.213234,454.520508 102.127449,427.187103 
	C102.058807,405.312469 111.561951,387.934509 130.518341,376.425659 
	C134.194855,374.193573 135.049438,372.179718 134.044586,368.032196 
	C121.025002,314.293671 108.201485,260.507660 95.313194,206.737259 
	C90.850548,188.118942 86.265388,169.529404 81.928375,150.882034 
	C81.065224,147.170837 79.797447,145.399704 75.523033,145.035980 
	C42.819607,142.253220 20.353365,117.474884 20.788363,85.086830 
	C21.196516,54.697231 47.775135,29.510828 78.198990,29.371542 
	C108.013275,29.235048 132.690414,51.493271 136.318756,78.946014 
	C136.811035,82.670662 138.627335,84.224510 142.419510,84.778084 
	C179.938721,90.255028 217.430237,95.921555 254.932358,101.515892 
	C262.000488,102.570282 269.090454,103.480949 276.151428,104.579292 
	C279.708557,105.132599 281.850861,104.198219 283.600281,100.652580 
	C293.942413,79.691269 311.144440,68.032646 334.306854,67.300087 
	C357.929199,66.552963 376.045715,77.481285 387.428467,98.295662 
	C390.194092,103.352905 392.991180,104.067665 398.074554,103.223778 
	C440.227386,96.225929 482.418976,89.461899 524.596985,82.615562 
	C536.903076,80.618042 549.193115,78.519623 561.511841,76.604156 
	C565.187988,76.032539 566.339539,73.890976 566.785278,70.508362 
	C569.071960,53.154064 577.495422,39.378796 592.167053,29.926373 
	C611.441956,17.508242 631.841919,16.562681 651.882996,27.441036 
	C671.365051,38.015957 681.864380,55.041935 682.135864,77.460770 
	C682.494873,107.099327 661.924622,130.911453 632.549927,135.332840 
	C628.973083,135.871231 627.819031,137.800522 627.386658,140.906342 
	C624.012573,165.141022 620.614258,189.372330 617.216431,213.603699 
	C612.755371,245.417847 608.379150,277.244537 603.706726,309.027649 
	C603.126282,312.975830 604.162598,314.554810 607.616516,316.179779 
	C645.245422,333.883087 653.025757,382.183380 622.870300,410.909821 
	C620.139343,413.511353 619.544189,415.330536 621.301270,418.875061 
	C649.124634,475.000000 676.814697,531.191162 704.409424,587.428955 
	C706.487732,591.664612 708.700562,592.890930 713.666931,592.199524 
	C747.024292,587.555420 773.173523,609.765198 778.889404,637.382141 
	C786.573486,674.508545 757.627686,708.616638 719.800842,707.222290 
	C702.914795,706.599792 688.982117,699.285034 678.009705,686.619202 
	C674.829102,682.947815 672.163818,682.504150 667.786133,684.333618 
	C630.454895,699.934326 593.033203,715.318665 555.622681,730.729126 
	C553.022156,731.800293 550.892212,732.689819 551.400696,736.341980 
	C553.882080,754.165771 548.149292,769.460083 536.597595,782.863892 
	C536.162903,783.368347 535.777283,783.915039 535.184448,784.721069 
	C507.979095,785.000000 480.958221,785.000000 453.468658,785.000000 
M258.616364,200.964752 
	C242.467484,191.965714 226.312531,182.977554 210.171097,173.965179 
	C182.685379,158.618835 155.180084,143.307037 127.761971,127.840729 
	C124.228905,125.847748 121.693184,125.429192 118.808029,128.892731 
	C116.041672,132.213654 112.497780,134.870026 108.580093,136.787369 
	C104.827026,138.624146 103.768501,141.015915 104.889992,145.214752 
	C107.766617,155.984787 110.159615,166.883713 112.764389,177.726685 
	C127.071411,237.282837 141.381973,296.838165 155.696487,356.392517 
	C158.314896,367.286163 158.327484,367.272186 169.386337,368.825562 
	C170.866272,369.033417 172.422836,369.189331 173.766998,369.775208 
	C177.471329,371.389801 179.375748,369.965179 181.284653,366.647430 
	C192.995483,346.293579 204.928024,326.067352 216.778519,305.793823 
	C234.765015,275.022949 252.683121,244.211639 270.811279,213.524460 
	C272.906860,209.977020 272.323456,208.286240 268.882538,206.627411 
	C265.587952,205.039108 262.460327,203.104385 258.616364,200.964752 
M284.991669,397.406586 
	C286.468140,397.171265 287.940460,396.904999 289.421722,396.705200 
	C315.117157,393.239594 340.817200,389.807922 366.509003,386.315643 
	C392.209564,382.822205 417.896881,379.231201 443.599701,375.754395 
	C469.136597,372.300018 494.688141,368.953979 520.223450,365.487915 
	C521.971680,365.250610 524.514221,365.298920 525.098633,363.508881 
	C526.274353,359.907562 527.276855,356.072205 527.292053,352.329132 
	C527.302856,349.637604 523.878906,348.965607 521.793396,347.792908 
	C501.323486,336.282288 480.785431,324.892975 460.278687,313.447723 
	C436.861176,300.377960 413.431396,287.329773 390.074066,274.153137 
	C386.912842,272.369781 384.565735,272.195953 381.626801,274.721863 
	C377.598083,278.184357 373.052917,281.040039 368.789703,284.236633 
	C326.815033,315.709442 284.850861,347.196259 242.888901,378.686066 
	C233.830551,385.483826 224.795120,392.312134 215.744324,399.119965 
	C214.013458,400.421875 212.946823,401.798096 213.974777,404.195618 
	C215.002258,406.592072 216.697922,406.757660 218.860199,406.399536 
	C221.811081,405.910736 224.777466,405.511230 227.742538,405.113190 
	C246.533554,402.590759 265.326050,400.079346 284.991669,397.406586 
M468.521698,448.997864 
	C488.357208,432.478424 508.172546,415.934662 528.053772,399.470428 
	C530.525269,397.423706 532.366699,395.829620 530.608276,392.066833 
	C528.841858,388.286774 526.361450,388.166595 522.925781,388.643280 
	C487.346069,393.579651 451.760193,398.472504 416.163300,403.283447 
	C383.037079,407.760468 349.889404,412.078674 316.762390,416.549744 
	C285.607086,420.754700 254.468292,425.081512 223.316040,429.309113 
	C220.715118,429.662109 218.484772,429.916809 217.957672,433.282379 
	C217.427109,436.670074 219.727753,437.094116 221.888336,437.951843 
	C240.149460,445.201172 258.401215,452.473999 276.661102,459.726410 
	C315.810333,475.275452 354.966797,490.806305 394.104370,506.384613 
	C396.617218,507.384796 398.602020,507.502930 400.917969,505.553711 
	C423.215088,486.787354 445.613434,468.141235 468.521698,448.997864 
M455.778198,219.205246 
	C454.722748,220.204468 453.077576,220.631729 452.724854,222.315323 
	C453.057220,224.145615 454.580627,225.047241 455.731140,226.197083 
	C463.155945,233.617569 470.592163,241.026978 478.069183,248.394821 
	C501.330719,271.316681 524.620483,294.209930 547.870361,317.143616 
	C549.787842,319.035004 551.469482,320.324463 554.353943,318.639404 
	C560.880249,314.826843 567.896423,312.266907 575.478699,311.479675 
	C578.377075,311.178741 579.773926,309.716461 580.118896,306.685089 
	C580.814575,300.572571 581.909302,294.506592 582.772949,288.411957 
	C587.045166,258.263062 591.312622,228.113434 595.547852,197.959290 
	C598.279053,178.513412 600.884644,159.049606 603.699158,139.615936 
	C604.379578,134.917877 603.580078,131.693588 598.559753,129.902954 
	C595.329651,128.750854 592.240662,126.767303 589.584656,124.559471 
	C586.705322,122.166023 584.753723,122.391190 581.819702,124.601288 
	C540.043213,156.070343 498.166656,187.406677 455.778198,219.205246 
M506.582550,640.178528 
	C510.231110,624.964417 514.082886,609.795410 517.470825,594.523499 
	C520.816833,579.440552 522.658691,582.723816 508.405334,577.097046 
	C507.786102,576.852661 507.184875,576.562866 506.566193,576.316956 
	C473.469177,563.161682 440.370087,550.011719 407.275574,536.850159 
	C404.630676,535.798218 402.359192,534.788391 399.519043,537.181091 
	C382.460632,551.552185 365.202637,565.685974 348.062103,579.959961 
	C343.385254,583.854675 343.421967,584.097534 347.845154,588.320801 
	C361.453064,601.313660 375.091919,614.274170 388.724152,627.241455 
	C411.648773,649.047974 434.608002,670.818298 457.459412,692.701233 
	C459.860748,695.000793 461.623718,695.583374 464.692291,693.695984 
	C472.612732,688.824097 481.373810,686.068176 490.682587,685.846191 
	C494.544495,685.754211 495.907745,684.083313 496.697205,680.755310 
	C499.846863,667.477905 503.128204,654.231689 506.582550,640.178528 
M566.580322,574.835327 
	C599.853577,588.080017 633.177368,601.200684 666.348999,614.695068 
	C671.697876,616.871033 675.322937,616.935181 678.285095,611.578430 
	C679.145813,610.021790 680.516785,608.554138 682.002197,607.572937 
	C686.146301,604.835449 685.684509,601.772217 683.725708,597.823792 
	C657.069763,544.093018 630.370422,490.382446 604.114441,436.456207 
	C600.287354,428.595947 596.845154,423.376709 586.916870,426.112152 
	C583.447266,427.068085 581.423035,427.626923 580.538452,431.382507 
	C570.119263,475.618011 559.599792,519.830017 548.963867,564.013855 
	C548.214294,567.127441 549.353455,568.295044 551.847778,569.232971 
	C556.524292,570.991516 561.174927,572.818848 566.580322,574.835327 
M363.538361,707.763855 
	C387.577179,712.139954 411.638092,716.401123 435.633087,721.005615 
	C439.611755,721.769104 440.817932,720.001160 442.441711,717.170715 
	C444.334381,713.871582 443.437866,711.754028 440.926483,709.367432 
	C403.612610,673.906433 366.318726,638.424194 329.149200,602.812195 
	C326.072540,599.864502 324.180206,599.762024 320.919312,602.512878 
	C298.262482,621.625916 275.462524,640.569885 252.628204,659.471069 
	C250.179352,661.498108 250.152985,663.446594 251.321854,666.005371 
	C253.901825,671.652954 255.740005,677.575256 256.063049,683.768799 
	C256.251526,687.381958 257.772552,688.461182 261.111084,689.062561 
	C294.985992,695.165039 328.830475,701.436340 363.538361,707.763855 
M197.520340,601.851135 
	C198.758591,610.069946 200.157394,618.269226 201.160294,626.516663 
	C201.594177,630.084717 203.016418,631.757202 206.636139,632.251282 
	C215.150269,633.413452 223.257355,636.125732 230.186676,641.235840 
	C233.717682,643.839844 235.924576,643.031616 238.798447,640.620483 
	C256.651062,625.642700 274.669037,610.860901 292.438416,595.785645 
	C297.435822,591.545959 303.104248,587.968262 307.414673,582.691467 
	C306.451050,581.605225 305.848602,580.818054 305.139801,580.142517 
	C270.549896,547.178345 235.964706,514.209167 201.342102,481.279358 
	C193.583221,473.899841 193.521408,473.965393 183.906021,478.850250 
	C183.609619,479.000793 183.308411,479.148987 182.995667,479.259125 
	C180.683136,480.073517 180.213379,481.686676 180.556168,483.999451 
	C183.018021,500.609100 185.406586,517.229614 187.790894,533.850708 
	C191.002045,556.235596 194.188522,578.624084 197.520340,601.851135 
M529.438782,645.814392 
	C526.253723,659.259888 523.096924,672.712280 519.860107,686.145264 
	C519.199829,688.885437 518.696716,691.245544 521.886902,692.948242 
	C529.037170,696.764832 535.008850,702.067688 539.942017,708.467773 
	C541.638123,710.668335 543.267151,710.563782 545.545349,709.619934 
	C583.996765,693.690308 622.454285,677.775024 660.972656,662.008484 
	C664.325317,660.636108 665.235046,658.660828 664.593140,655.493225 
	C663.789734,651.527832 663.536743,647.568909 664.522766,643.603882 
	C665.313477,640.424133 664.000000,638.751770 660.998840,637.565857 
	C623.221252,622.638489 585.458679,607.672180 547.761230,592.544006 
	C543.661987,590.899048 542.192993,591.907410 541.263916,595.942383 
	C537.492554,612.320068 533.520691,628.651611 529.438782,645.814392 
M486.280121,464.792297 
	C465.401337,482.241699 444.522522,499.691101 422.845612,517.807556 
	C457.640991,531.628662 491.301147,544.998901 524.820312,558.313110 
	C527.004517,556.183655 527.112305,553.744568 527.641907,551.535034 
	C537.342957,511.059814 546.999207,470.573792 556.657654,430.088287 
	C558.647034,421.749451 558.504822,421.923920 551.445007,416.812469 
	C548.222412,414.479248 546.247803,414.898163 543.305359,417.379730 
	C524.590393,433.163330 505.681702,448.717285 486.280121,464.792297 
M397.012665,168.486847 
	C407.233978,178.520386 417.493408,188.515442 427.663422,198.600723 
	C434.650482,205.529602 434.605286,205.599304 442.317444,199.814850 
	C484.152557,168.436615 525.986084,137.056274 567.797485,105.646484 
	C569.262573,104.545898 571.872131,103.869141 570.692566,101.167725 
	C569.525269,98.494408 567.067017,99.289101 565.004395,99.624588 
	C528.735413,105.523857 492.473267,111.465157 456.209351,117.395607 
	C437.824097,120.402252 419.461029,123.557961 401.037323,126.307251 
	C396.194794,127.029892 393.680359,128.769485 393.307434,133.875397 
	C393.056488,137.311188 392.682312,141.308548 390.809296,143.954758 
	C383.391541,154.434784 387.464966,161.684570 397.012665,168.486847 
M228.002579,333.468994 
	C219.126953,348.702301 210.251328,363.935608 201.375702,379.168915 
	C201.688599,379.382629 202.001495,379.596313 202.314377,379.809998 
	C255.635101,339.801880 308.955841,299.793762 362.864624,259.344391 
	C359.901978,257.595978 357.941254,256.382660 355.929749,255.260498 
	C337.313171,244.874710 318.696747,234.488480 300.059967,224.139053 
	C293.798187,220.661728 293.853760,220.757843 290.121948,227.154572 
	C269.562225,262.396179 248.958969,297.612396 228.002579,333.468994 
M320.359375,562.105652 
	C322.488098,563.627625 323.861481,566.122192 326.838074,567.121521 
	C343.297028,553.368347 359.820923,539.560913 377.271759,524.978882 
	C322.617065,503.235840 269.072754,481.934540 215.528427,460.633209 
	C215.268860,460.982269 215.009293,461.331329 214.749710,461.680389 
	C249.775040,495.003448 284.800385,528.326477 320.359375,562.105652 
M163.215515,111.389099 
	C157.045135,111.114906 151.043930,108.831329 144.488922,110.332947 
	C191.185684,136.388016 237.882446,162.443085 284.614380,188.517776 
	C288.969513,183.416229 291.348297,177.868958 294.562378,172.855591 
	C296.663025,169.578979 296.450623,167.187897 293.578186,164.183914 
	C285.429474,155.661972 280.505737,145.342087 278.881256,133.652740 
	C278.351929,129.843491 276.724274,128.146469 273.033295,127.623161 
	C256.422272,125.268013 239.827332,122.798500 223.232193,120.332535 
	C203.514877,117.402618 183.803314,114.434135 163.215515,111.389099 
M387.873383,192.627777 
	C382.426483,187.245422 376.924347,181.917282 371.561005,176.452942 
	C369.533600,174.387405 367.660492,173.795990 364.973358,175.291016 
	C351.143127,182.985687 336.529053,185.133118 321.127289,181.106796 
	C319.639038,180.717728 318.063995,180.137085 317.071259,181.755646 
	C313.377380,187.778229 309.785156,193.863129 306.328247,199.635025 
	C307.160065,200.629456 307.321930,200.972778 307.591553,201.124008 
	C332.119629,214.882080 356.669617,228.601105 381.170715,242.406998 
	C383.653870,243.806213 385.268250,242.549103 387.000031,241.256393 
	C393.802338,236.178711 400.584656,231.074158 407.365723,225.968063 
	C409.843506,224.102295 412.297119,222.204330 415.116760,220.049835 
	C405.895905,210.765778 397.135834,201.945694 387.873383,192.627777 
M495.324951,306.100830 
	C500.343262,308.893311 505.361603,311.685760 510.379913,314.478241 
	C508.628601,311.715912 506.557251,309.430847 504.365051,307.268311 
	C482.803345,285.998352 461.292999,264.675537 439.609375,243.530441 
	C431.265289,235.393616 433.842010,235.804550 424.515686,242.553391 
	C418.538513,246.878647 412.743530,251.455643 406.246124,256.391357 
	C436.330475,273.173248 465.511810,289.451447 495.324951,306.100830 
z"/>
</svg>